<svg width="23" height="19" viewBox="0 0 23 19" fill="none" xmlns="http://www.w3.org/2000/svg">
<path d="M2.52473 11.0995L10.8522 18.4298C11.1542 18.6956 11.3053 18.8286 11.4859 18.8337C11.4953 18.834 11.5047 18.834 11.5141 18.8337C11.6947 18.8286 11.8458 18.6956 12.1478 18.4298L20.4753 11.0996C22.996 8.88066 23.2973 5.06031 21.1556 2.47368L20.9932 2.27746C18.5365 -0.68953 13.8448 -0.170194 12.0965 3.26225C11.8482 3.74969 11.1518 3.74969 10.9035 3.26225C9.15523 -0.170193 4.46349 -0.68953 2.00684 2.27746L1.84437 2.47367C-0.297346 5.06031 0.00397921 8.88066 2.52473 11.0995Z" fill="#DF2525"/>
</svg>
