<svg width="24" height="21" viewBox="0 0 24 21" fill="none" xmlns="http://www.w3.org/2000/svg">
<path d="M3.02473 12.0995L11.3522 19.4298C11.6542 19.6956 11.8053 19.8286 11.9859 19.8337C11.9953 19.834 12.0047 19.834 12.0141 19.8337C12.1947 19.8286 12.3458 19.6956 12.6478 19.4298L20.9753 12.0996C23.496 9.88067 23.7973 6.06031 21.6556 3.47368L21.4932 3.27746C19.0365 0.31047 14.3448 0.829806 12.5965 4.26225C12.3482 4.74969 11.6518 4.74969 11.4035 4.26225C9.65523 0.829806 4.96349 0.31047 2.50684 3.27746L2.34438 3.47367C0.202654 6.06031 0.503979 9.88066 3.02473 12.0995Z" stroke="#222222"/>
</svg>
