<?xml version="1.0" encoding="UTF-8"?>
<svg version="1.1" viewBox="0 0 1608 1596" width="402" height="399" xmlns="http://www.w3.org/2000/svg">
<path transform="translate(660,867)" d="m0 0h14l14 2 16 6 11 7 7 7 8 7 8 10 6 12 5 14 1 22-3 20-8 17-5 8-13 14-17 11-1 3 1 16 3 12 8 16 8 11 7 7 10 7 8 6 11 6 13 8 11 6 10 6 19 11 10 6 31 18 9 6 12 7 17 10 5 4 12 6 9 6 14 8 9 6 11 7 15 9 17 10 9 6 20 12 14 9 20 12 24 15 17 10 14 9 2 3-8 4-16 9-24 13-14 8-23 12-13 8-26 14-18 10-16 8-23 12-19 11-15 9-17 10-10 6-10 4-10 2h-15l-16-6-11-6-9-6-20-12-10-7-15-10-11-7-14-8-8-5-24-14-16-9-8-5-20-11-11-8-7-6v-2l-3-1-5-7-4-8-2-7v-22l2-27 1-31 5 2 21 12 24 14 13 8 12 7 17 10 16 10 13 8 14 9 20 13 15 10 10 6 9 6 17 6 12 2h12l10-2 15-6 16-10 18-12 22-12 2-3-8-6-14-8-13-8-22-14-16-9-9-6-14-8-9-6-20-12-13-8-11-7-19-11-8-5-13-8-19-11-8-5-13-8-19-11-8-5-13-8-16-9-15-10-6-9-4-7-1-10v-24l1-36v-18l2-4-5-5-1-3-4-2-4-4v-2h-2l-11-15-7-18-3-23 3-19 4-10 10-19 13-13 9-8 12-6 15-5zm1 37-10 2-11 6-11 11-6 13-2 8v10l4 16 7 10 8 7 14 7 11 2 14-1 14-7 11-11 7-13v-8l2-5-1-10-4-13-8-10-8-6-12-6-11-2z"/>
<path transform="translate(1388,796)" d="m0 0h3l-1 151-1 37v90l-2 16-5 10-8 10-9 7-14 8-27 15-19 10-27 14-13 8-15 9-24 14-19 11-10 6-16 8-9 3-14 1-12-2-15-8-16-12-5-4-12-6-11-7-8-5 1-3 14-7 10-6 26-15 17-10 16-9 21-12 22-12 7-5 16-8 19-9 19-10 12-9 13-13 4-8 2-2 2-7 3-16v-18l-1-8v-49l-23 12-17 10-16 9-22 12-21 12-24 13-14 8-18 10-21 12-23 13-18 10-10 6-18 10-10 6-20 11-8 5-17 9-12 5-13 1-11-4-19-10-13-8-8-6-10-5-14-9-8-4h-5l-6 3-22 3-18-2-13-4-19-10-12-11-7-8-10-19-3-11-2-5v-21l2-14 5-13 2-2 1-5h2l2-4 7-11 11-10 16-9 17-6 6-1h24l14 3 20 10 7 6 8 7 10 13 8 16 3 13v7l1 2v10l2 5 14 6 15 3h10l16-2 20-7 23-12 10-7 10-5 11-7 17-10 48-28 18-10 21-12 18-10 17-10 14-7 15-9 22-12 23-13 22-12 43-24 17-9zm-535 153-11 3-9 5-8 6-2 8-4 2-2 3-3 15 1 14 3 9 7 11 7 7 12 6 17 3 10-2 10-3 9-6 8-9 4-6 3-9 1-8v-10l-4-13-5-8-11-11-9-4-5-2-6-1z"/>
<path transform="translate(604,675)" d="m0 0 20 1 14 4 16 8 11 8 8 8 7 11 3 4 2 5 3 7 3 11 1 7v22l-4 15-8 16-8 11-12 12-10 6-17 7-9 2-9 1h-12l-18-3-15-7-7 1-9 6-9 7-7 8-4 5-5 11-6 22-2 30-1 86-2 69-7 179-2 66-5-1-18-11-15-9-15-10-11-6-11-7-32-20-15-9-15-10-18-11-26-17-18-11-22-12-17-10-12-11-4-5-1-5h-2l-6-17v-25l1-3v-16l1-4 2-37v-9l1-10 2-110 4-15 7-11 8-8 8-6 10-4 11-5 25-12 13-7h3v34l-2 77-2 46-3 38v34l4 16 9 17 12 11 16 9 19 10 15 9 12 7 6 4v-21l2-54v-17l1-7 4-119 3-114 1-17 3-12 6-8 9-8 10-6 21-10 18-10 16-8 3-3 4-20 5-14 8-12 8-10 14-11 10-6 16-5zm2 37-12 2-8 4-10 8-8 10-3 7-1 7v15l3 12 7 11 8 7 9 6 14 3h8l12-2 16-10 6-7 5-10 2-8v-7l1-1v-7l-1-2-1-10-5-5-3-7-9-8-13-6-9-2z"/>
<path transform="translate(1075,290)" d="m0 0 5 1 20 11 21 12 19 11 63 36 50 30 19 11 18 10 26 13 13 10 8 10 4 8 3 13 1 17-1 43v94l1 33v18l-2 14-3 10-6 9-9 9-8 6-38 19-20 11h-1l-1-47v-128l1-31-1-21-3-15-3-5-3-7-9-12-14-10-17-9-14-6-18-10-14-7v347l-2 10-6 12-9 7-7 5-6 3-18 10-11 6-16 9-5 3v10l-3 14-3 9-3 4-4 7-6 9-10 10-13 8-12 6-14 4-9 1h-16l-21-6-14-7-14-11-9-12-5-5v-5l-4-4-1-6-3-5-1-9v-27l3-12 6-14 6-9 8-10 14-11 16-8 12-4 10-1h14l16 3 16 6 5-1 9-6 8-9 9-15 4-12 3-16 1-14v-23l-1-49zm-81 516-15 4-10 8-8 9-5 10-3 13 2 16 3 5 2 5 10 11 10 7 13 3 11 1 14-3 11-7 9-9 6-12 2-12-1-11-2-5 1-5-5-5-4-8-7-6-14-7-12-2z"/>
<path transform="translate(776,163)" d="m0 0h21l13 4 14 8 14 10 10 7 15 10 23 16 15 10 32 20 21 13 22 14 14 10 7 7 7 14 3 11v18l-2 7-4 50-2 3-10-7-14-9-12-8-21-13-23-15-48-32-10-7-18-13-24-16-14-7-17-4h-17l-11 3-21 10-16 10-20 11-15 8 8 4 16 10 10 7 14 9 10 7 30 20 10 6 20 13 14 9 48 32 17 11 16 10 11 7 39 26 11 7 11 8 11 7 8 11 3 9v16l-3 37-1 26 7 7 8 7 7 8 7 10 3 9 3 6 2 13v21l-2 9-4 12-7 14-7 7-7 8-8 7-16 8-10 4-15 3h-12l-5-1-9-1-13-5-16-8-13-12-8-9-8-16-4-11-2-11v-18l4-16 4-8 2-7 3-4 3-6 15-15 9-6 5-3-2-18-6-17-7-11-8-10-14-13-15-10-20-12-9-6-10-6-19-12-11-7-14-8-10-7-27-18-24-15-20-13-144-96-21-13-10-7 3-3 27-13 19-10 50-25 8-5 16-8 21-10 8-4 23-11 36-18 13-8 23-12zm161 459-9 2-8 4-7 6-8 10-4 8-2 10v8l3 14 6 11 6 7 14 8 13 3h12l13-5 9-6 6-5 6-10 3-8 1-10v-8l-3-12-6-9-9-9-15-8-4-1z"/>
<path transform="translate(447,386)" d="m0 0h15l13 5 12 7 7 7 11 7 24 16 7 5-1 2-9 4-24 13-16 8-24 13-16 9-68 34-28 13-16 10-12 9-3 6-5 6-5 11-3 16v74l20-10 13-8 14-7 18-10 68-34 14-8 38-20 40-20 14-8 17-9 19-10 34-17 9-2h14l10 4 8 5 11 7 9 6 10 7 10 6 1 1h7l14-7 18-3h17l16 3 11 4 11 7 15 13 8 11 8 16 4 11v9l1 2v19l-5 17-8 16-7 10-7 7-13 9-15 7-9 3-15 2h-12l-18-4-14-6-9-6-4-3v-2l-4-2-8-8-5-7-4-7-5-12-2-5-1-7-1-5 1-2-4-4-12-5-6-2h-26l-16 4-16 6-12 6-16 9-16 8-19 11-25 13-24 14-52 26-12 7-21 10-22 12-21 11-19 9-32 16-34 18-28 15-17 8h-2l1-6v-11l2-39 1-33v-16l1-2 3-64 1-15 1-17 1-24 1-55 3-12 6-11 9-10 19-12 50-25 28-13 21-12 25-13 13-8 23-12 15-7 6-2zm287 175-12 5-13 10-3 6-3 3-5 17v9l2 11 7 13 7 7 9 5 4 3 10 2h12l12-2 14-9 7-8 4-6 3-9 2-9-1-9-2-11-6-10-7-7-10-7-6-3-10-1z"/>
</svg>
